<?xml version="1.0" standalone="no"?>
<!DOCTYPE svg PUBLIC "-//W3C//DTD SVG 20010904//EN"
 "http://www.w3.org/TR/2001/REC-SVG-20010904/DTD/svg10.dtd">
<svg version="1.0" xmlns="http://www.w3.org/2000/svg"
 width="600.000000pt" height="600.000000pt" viewBox="0 0 600.000000 600.000000"
 preserveAspectRatio="xMidYMid meet">
<g transform="translate(0.000000,600.000000) scale(0.100000,-0.100000)"
fill="#000000" stroke="none">
<path d="M2811 4760 c-103 -28 -194 -81 -276 -164 -67 -68 -105 -128 -119
-189 -6 -24 -1 -33 25 -55 83 -70 108 -95 134 -132 23 -33 25 -42 15 -55 -21
-25 -47 -17 -70 20 -12 20 -53 61 -91 91 -38 31 -77 70 -88 88 -49 79 -32 177
46 273 34 41 42 58 34 66 -14 14 -59 -9 -173 -90 -81 -58 -88 -70 -88 -146 0
-79 40 -131 150 -197 112 -66 198 -157 184 -193 -10 -27 -48 -20 -67 12 -22
38 -84 93 -143 127 -128 73 -180 145 -172 235 l5 50 -24 -23 c-105 -99 -265
-389 -249 -452 6 -26 32 -38 121 -56 125 -25 209 -81 273 -183 64 -102 98
-231 67 -257 -27 -22 -47 0 -61 66 -36 174 -139 283 -295 314 -72 15 -108 29
-118 49 -5 9 -12 14 -14 11 -13 -14 -37 -206 -37 -294 1 -100 11 -136 38 -136
7 0 51 -12 99 -27 85 -26 95 -26 305 -25 231 2 278 -3 365 -44 98 -47 216
-175 200 -218 -11 -29 -43 -17 -76 30 -44 61 -119 118 -188 144 -63 23 -116
27 -353 20 -150 -3 -242 11 -330 54 -27 13 -50 20 -50 16 0 -5 7 -39 14 -77
24 -109 63 -219 117 -324 l50 -96 60 -7 c94 -11 224 -52 322 -103 169 -87 272
-225 298 -395 l11 -77 70 -36 70 -37 -7 113 c-7 126 -34 259 -64 317 -27 53
-86 108 -145 136 -28 13 -100 36 -161 51 -192 48 -311 119 -401 238 -63 83
-109 184 -93 203 26 31 47 15 85 -63 27 -54 58 -98 104 -144 144 -145 331
-175 508 -83 36 19 71 34 78 34 18 0 28 -38 14 -55 -18 -21 -130 -75 -157 -75
-40 0 -25 -17 21 -23 61 -9 144 -47 253 -117 50 -33 95 -60 100 -60 13 0 4
215 -13 310 -19 110 -38 167 -85 261 -36 73 -39 76 -86 89 -82 22 -245 105
-331 169 -93 69 -91 63 -44 156 59 119 144 221 237 285 89 61 202 105 290 112
38 4 40 6 43 41 3 36 2 37 -31 37 -94 0 -297 96 -297 141 0 9 7 22 15 29 12
10 22 8 53 -13 173 -120 409 -123 576 -8 48 33 71 35 82 6 19 -49 -187 -155
-301 -155 -36 0 -36 -1 -33 -37 3 -35 5 -37 43 -41 223 -20 428 -176 537 -407
16 -36 27 -72 24 -82 -16 -47 -265 -193 -391 -229 l-67 -19 -38 -80 c-44 -93
-75 -198 -89 -308 -11 -82 -15 -250 -6 -259 3 -3 55 28 115 68 104 69 207 114
263 114 28 0 11 13 -38 29 -53 17 -135 70 -135 86 0 7 7 18 15 25 13 11 27 7
84 -22 91 -47 186 -64 272 -49 145 25 274 125 346 268 33 65 44 78 64 78 36 0
34 -24 -7 -109 -89 -182 -238 -287 -486 -345 -148 -35 -231 -88 -282 -181 -37
-68 -66 -212 -66 -333 l0 -97 70 37 c69 37 70 39 70 79 0 22 7 65 16 95 49
165 166 285 353 364 78 33 238 75 284 75 22 0 33 12 67 73 55 99 98 213 125
332 12 55 21 101 20 103 -1 2 -18 -6 -36 -17 -89 -52 -247 -74 -431 -60 -151
12 -224 2 -307 -41 -64 -33 -103 -66 -150 -128 -34 -44 -56 -50 -74 -21 -8 13
-2 28 28 69 45 61 118 119 200 157 l60 28 235 1 c129 0 251 4 270 8 81 17 186
50 200 63 21 20 19 211 -4 330 l-18 92 -21 -24 c-16 -18 -42 -29 -95 -40 -134
-28 -217 -88 -271 -197 -17 -32 -35 -84 -41 -116 -17 -80 -33 -97 -64 -67 -18
18 -14 49 15 140 25 76 55 125 114 186 59 61 128 95 230 114 88 17 121 40 109
79 -21 70 -73 176 -122 250 -55 83 -142 195 -152 196 -3 0 -5 -31 -5 -69 0
-62 -3 -73 -31 -108 -17 -21 -76 -69 -132 -106 -65 -43 -113 -84 -134 -113
-35 -49 -70 -57 -76 -18 -6 41 70 114 227 217 81 53 103 92 102 180 0 59 -2
64 -38 95 -46 40 -192 132 -209 132 -28 0 -23 -23 14 -68 51 -60 71 -101 79
-157 9 -71 -16 -123 -95 -192 -85 -74 -83 -72 -111 -111 -16 -23 -30 -32 -44
-30 -56 8 -14 86 93 173 l68 54 -13 46 c-19 62 -77 146 -139 201 -60 53 -208
128 -284 143 -82 17 -227 13 -311 -9z m291 -14 c20 -2 43 -8 50 -12 7 -5 21
-10 31 -11 30 -5 151 -67 181 -93 100 -88 171 -195 159 -240 -2 -8 -20 -27
-40 -40 -44 -30 -110 -100 -128 -133 -19 -36 5 -87 40 -87 32 0 65 16 65 33 1
7 19 30 40 52 22 22 40 35 40 30 -1 -13 -60 -91 -60 -79 0 15 -30 -47 -34 -72
-6 -32 26 -63 59 -56 21 4 25 1 25 -21 0 -15 13 -41 30 -60 16 -19 27 -37 24
-39 -3 -3 6 -15 20 -26 21 -16 33 -18 66 -12 22 4 40 5 40 2 0 -2 7 2 16 9 17
14 64 24 64 13 0 -3 -11 -15 -25 -25 -30 -25 -91 -117 -87 -135 1 -7 -3 -16
-9 -20 -8 -4 -9 -3 -5 4 4 7 5 12 1 12 -3 0 -10 -10 -15 -22 -7 -18 -9 -19 -9
-5 -2 55 -106 239 -160 284 -14 11 -26 26 -26 32 0 6 -4 11 -8 10 -5 -1 -21
10 -35 23 -59 53 -151 109 -204 123 -5 2 -11 4 -15 5 -5 1 -12 2 -16 1 -4 -1
-17 4 -28 9 -11 6 -38 12 -61 14 -23 2 -43 8 -44 15 -2 8 -1 8 3 0 4 -8 7 -8
13 1 4 7 29 16 56 21 26 5 50 13 53 18 4 4 23 11 43 15 21 4 44 13 52 21 8 8
20 15 26 15 6 0 13 7 16 15 4 8 11 15 18 16 15 0 61 59 46 59 -6 0 -10 6 -9
13 3 26 -2 34 -27 45 -24 12 -60 3 -74 -18 -10 -15 -101 -61 -113 -57 -7 2
-16 -2 -22 -9 -11 -13 -105 -26 -105 -14 0 4 20 11 44 14 51 8 156 56 186 86
11 11 20 17 20 14 0 -9 24 18 44 49 21 31 16 41 -38 87 -17 14 -37 32 -45 40
-25 24 -140 72 -153 64 -6 -4 -8 -3 -5 3 4 7 -2 11 -16 10 -12 0 -31 4 -41 8
-11 5 -17 5 -14 -1 4 -5 -18 -9 -49 -9 -30 0 -57 -3 -59 -7 -6 -10 -24 -1 -24
12 0 5 8 10 18 13 19 4 158 0 214 -7z m-239 -16 c20 0 -7 -16 -58 -35 -27 -10
-60 -29 -72 -42 -12 -12 -26 -23 -31 -23 -14 0 -62 -58 -62 -75 0 -19 49 -67
105 -102 22 -14 42 -29 45 -32 11 -14 62 -31 110 -37 27 -4 50 -11 50 -15 0
-9 -14 -8 -97 7 -18 4 -33 10 -33 15 0 5 -3 8 -7 7 -13 -5 -113 42 -113 52 0
20 -49 22 -79 4 -49 -29 -34 -86 30 -114 13 -6 39 -22 58 -35 19 -14 44 -25
55 -25 12 0 27 -5 32 -10 6 -6 34 -13 63 -17 28 -3 54 -10 57 -14 3 -5 0 -9
-6 -9 -6 0 -8 -5 -4 -12 5 -8 2 -9 -10 -5 -20 8 -134 -21 -157 -40 -9 -7 -18
-10 -22 -7 -6 6 -59 -21 -86 -44 -9 -8 -41 -32 -71 -54 -52 -38 -120 -111
-120 -129 0 -5 -7 -9 -17 -9 -9 0 -13 -3 -10 -6 4 -4 -2 -19 -12 -33 -10 -14
-33 -59 -52 -98 -19 -40 -37 -73 -41 -73 -4 0 -10 11 -14 25 -3 14 -9 25 -13
25 -3 0 -12 13 -19 29 -7 15 -31 47 -53 71 -22 23 -38 44 -36 46 2 3 26 -5 53
-17 55 -24 124 -26 136 -4 5 7 14 20 21 27 6 8 17 21 22 30 6 8 19 27 29 42
16 24 17 29 5 38 -10 7 -9 8 7 3 37 -10 71 13 72 48 2 60 -71 133 -238 240
-75 48 -94 80 -94 155 0 48 3 56 34 83 39 34 102 77 111 75 3 -1 13 5 22 13
24 19 21 4 -4 -22 -36 -37 -59 -98 -59 -159 0 -31 5 -60 10 -63 6 -3 10 -16
10 -28 0 -14 34 -54 100 -118 55 -53 100 -101 100 -107 0 -13 62 -35 69 -24 3
5 13 11 21 14 14 5 17 23 11 75 -1 12 -67 81 -122 128 -20 17 -38 40 -41 52
-10 36 48 132 121 200 60 57 152 113 184 113 7 0 17 4 23 9 12 12 45 20 62 15
8 -2 19 -4 25 -4z m298 -62 c41 -21 92 -54 113 -75 l40 -37 -45 -38 c-56 -49
-148 -95 -221 -110 -110 -23 -246 19 -345 108 l-48 43 30 26 c113 96 187 126
311 122 82 -2 97 -5 165 -39z m477 -28 c2 -5 8 -10 14 -10 6 0 24 -13 39 -30
16 -16 32 -31 37 -32 4 -1 17 -11 30 -22 25 -22 30 -83 11 -133 -11 -29 -72
-93 -88 -93 -5 0 -32 -18 -60 -40 -56 -44 -82 -53 -60 -19 8 11 18 19 22 17 5
-2 13 5 18 15 6 9 15 15 20 11 5 -3 8 -2 7 3 -1 4 8 27 20 50 31 60 30 143 -4
217 -14 31 -29 56 -34 56 -4 0 -10 6 -13 14 -4 11 0 13 16 10 12 -2 23 -8 25
-14z m287 -265 c17 -25 33 -45 38 -45 4 0 7 -10 7 -22 0 -12 3 -19 6 -15 7 7
98 -165 109 -208 16 -57 -5 -84 -65 -85 -19 0 -59 -9 -88 -19 -52 -18 -69 -8
-24 15 12 6 19 14 14 19 -4 5 -2 5 4 2 15 -8 64 30 64 49 0 8 -9 31 -20 51
-11 21 -20 43 -20 50 0 7 -5 13 -11 13 -5 0 -8 4 -5 8 3 5 -8 23 -24 41 -22
24 -35 30 -53 26 -13 -4 -31 -7 -40 -9 -9 -1 -20 -5 -23 -9 -11 -10 -24 -8
-24 4 0 5 5 7 10 4 6 -3 10 1 10 9 0 9 6 16 14 16 17 0 80 125 71 140 -3 5 0
10 7 10 7 0 27 -21 43 -45z m-1814 -38 c16 -34 29 -58 29 -52 0 5 11 -2 25
-18 14 -15 39 -34 55 -42 17 -9 30 -18 30 -20 0 -3 -17 3 -37 14 -21 10 -42
20 -48 22 -5 2 -9 7 -8 11 2 4 -4 5 -11 2 -8 -3 -24 0 -36 6 -19 10 -25 8 -43
-10 -25 -28 -96 -166 -93 -183 3 -21 40 -57 58 -57 10 0 18 -5 18 -11 0 -5 4
-7 10 -4 6 3 7 -1 4 -10 -4 -10 -10 -12 -18 -7 -6 5 -34 12 -63 16 -67 9 -110
24 -117 42 -3 8 7 43 24 76 16 34 26 67 23 72 -3 6 -3 8 1 4 5 -4 22 20 38 53
16 32 34 59 40 59 6 0 8 3 5 6 -7 7 17 44 53 82 12 13 25 21 28 18 3 -4 18
-34 33 -69z m874 33 c-3 -5 -11 -10 -16 -10 -6 0 -7 5 -4 10 3 6 11 10 16 10
6 0 7 -4 4 -10z m-799 -169 c117 -48 167 -82 205 -137 16 -24 29 -44 29 -47 0
-2 -11 -17 -25 -33 -15 -16 -33 -41 -43 -56 -9 -16 -24 -28 -32 -28 -41 0
-124 34 -193 80 -42 27 -90 56 -107 65 l-31 16 47 89 c26 50 49 90 51 90 1 0
46 -18 99 -39z m1742 -51 c40 -77 42 -86 27 -95 -10 -5 -39 -25 -64 -43 -62
-44 -180 -102 -222 -108 -32 -5 -37 -2 -76 50 -24 31 -43 60 -43 65 0 16 59
89 94 116 37 28 214 106 230 102 5 -2 29 -41 54 -87z m-1793 -210 c3 -5 2 -10
-4 -10 -5 0 -13 5 -16 10 -3 6 -2 10 4 10 5 0 13 -4 16 -10z m1994 -36 c4 3 7
-3 8 -12 1 -9 5 -30 9 -47 4 -16 7 -67 7 -112 -1 -46 3 -80 8 -77 5 3 9 -4 9
-16 0 -13 -4 -19 -11 -14 -8 5 -10 -1 -7 -20 4 -22 0 -30 -24 -42 -16 -8 -42
-16 -58 -17 -17 -1 -30 -5 -30 -8 0 -10 -70 -18 -202 -25 -85 -4 -118 -3 -118
5 0 7 6 14 14 17 10 4 13 16 9 42 -3 26 -2 33 5 23 6 -8 8 -20 5 -27 -9 -23
67 -61 91 -46 6 3 17 7 26 7 58 6 104 20 124 38 13 12 35 30 50 40 30 20 50
62 77 157 l18 65 -34 31 c-35 31 -35 31 -12 41 12 6 24 6 25 2 2 -5 7 -7 11
-5z m-2219 -15 c11 -6 7 -9 -15 -10 -16 -1 -33 -1 -37 0 -5 0 -7 -5 -5 -11 1
-7 -4 -12 -11 -10 -9 2 -11 -4 -7 -18 4 -11 8 -39 10 -63 4 -49 51 -156 71
-164 8 -3 14 -13 14 -22 0 -14 2 -14 10 -1 5 8 10 10 10 4 0 -19 80 -55 133
-60 79 -6 102 -5 106 7 1 5 9 15 15 22 7 6 11 22 9 36 -1 15 4 4 12 -24 8 -27
15 -53 15 -57 0 -20 -251 -4 -310 19 -8 4 -18 6 -22 5 -4 -1 -27 7 -52 17
l-45 20 -3 93 c-3 80 6 182 18 226 4 14 53 9 84 -9z m47 -5 c-3 -3 -12 -4 -19
-1 -8 3 -5 6 6 6 11 1 17 -2 13 -5z m72 -55 c25 -11 58 -32 73 -46 32 -31 74
-123 81 -180 l5 -43 -66 0 c-74 0 -150 29 -189 71 -44 48 -72 145 -64 223 2
14 110 -3 160 -25z m2071 -7 c0 -151 -109 -262 -257 -262 l-63 0 0 38 c1 81
57 178 126 218 42 25 102 41 162 43 31 1 32 -1 32 -37z m-1730 -179 c14 -13
30 -23 37 -23 7 0 13 -4 13 -8 0 -4 15 -16 33 -27 17 -10 34 -22 37 -26 3 -4
46 -26 95 -49 50 -23 98 -46 107 -51 10 -5 28 -9 42 -9 25 0 79 -47 70 -61 -3
-5 -1 -9 4 -9 10 0 28 -36 49 -100 8 -25 17 -52 20 -60 3 -8 7 -21 9 -29 1 -8
6 -26 9 -40 13 -47 31 -271 24 -283 -9 -14 -64 7 -82 32 -7 9 -31 25 -54 35
-24 10 -43 22 -43 27 0 4 -11 8 -25 8 -14 0 -25 5 -25 10 0 6 -7 10 -16 8 -33
-6 -24 20 13 43 21 13 46 32 56 43 19 21 23 46 6 46 -5 0 -8 4 -5 9 3 5 0 13
-7 19 -17 13 -67 21 -67 11 0 -5 -7 -9 -15 -9 -8 0 -15 -4 -15 -8 0 -9 -61
-34 -68 -28 -2 2 6 7 17 11 12 3 21 11 21 16 0 5 5 9 11 9 6 0 20 11 31 25 32
41 52 47 78 25 29 -25 35 -25 61 1 40 40 11 106 -85 190 -90 78 -167 113 -284
125 -77 9 -81 9 -89 19 -4 4 -2 5 5 1 13 -8 13 -4 -3 84 -2 8 -8 28 -14 44
-11 27 -10 28 6 15 10 -8 29 -24 43 -36z m1272 12 c-2 -14 -8 -23 -12 -20 -4
3 -8 -10 -8 -29 0 -19 -2 -39 -5 -43 -3 -5 -2 -15 3 -23 8 -12 -7 -17 -84 -27
-58 -7 -115 -21 -150 -37 -31 -14 -60 -26 -64 -26 -4 0 -13 -9 -20 -20 -7 -11
-17 -20 -23 -20 -13 0 -35 -22 -92 -92 -47 -58 -49 -91 -5 -118 l33 -20 36 36
36 35 -1 -28 c-2 -42 27 -65 154 -121 22 -9 23 -11 5 -11 -12 -1 -26 4 -33 11
-7 7 -12 9 -12 5 0 -4 -20 3 -44 17 -25 14 -60 28 -79 31 -29 6 -37 3 -51 -16
-9 -13 -16 -31 -16 -39 0 -17 49 -70 66 -70 5 0 17 -7 27 -14 17 -13 11 -17
-60 -51 -43 -21 -87 -45 -98 -55 -11 -10 -39 -29 -62 -43 l-42 -26 4 67 c9
156 16 209 31 255 9 28 17 60 17 73 0 13 3 24 7 24 3 0 7 6 7 13 0 20 59 141
76 155 8 7 24 15 36 17 12 3 30 7 41 9 11 3 37 14 58 24 20 11 51 26 67 33 17
8 50 26 74 41 24 15 48 25 54 21 6 -3 7 -1 3 5 -4 7 -3 12 2 12 5 0 20 10 34
23 38 34 82 67 89 67 3 0 4 -11 1 -25z m-1773 -221 c29 -3 40 -19 34 -45 -3
-10 4 -37 16 -59 11 -22 21 -46 21 -53 0 -7 8 -22 19 -33 10 -11 21 -30 25
-41 9 -28 154 -163 176 -163 5 0 10 -4 10 -8 0 -11 111 -67 128 -64 6 2 12 -2
12 -7 0 -6 17 -13 38 -16 34 -5 100 -20 145 -32 9 -2 15 -8 12 -13 -3 -5 4 -7
16 -5 32 6 114 -40 146 -82 15 -21 30 -40 33 -43 23 -23 64 -169 54 -194 -3
-9 -1 -16 5 -16 6 0 11 -5 11 -11 0 -5 -4 -7 -10 -4 -7 4 -7 -3 0 -20 10 -26
14 -135 5 -135 -9 0 -61 25 -71 35 -6 6 -14 30 -18 55 -3 25 -8 57 -11 72 -6
38 -46 131 -62 144 -7 6 -13 16 -13 23 0 6 -4 11 -8 11 -5 0 -15 11 -22 25 -7
14 -17 25 -21 25 -4 0 -24 16 -45 36 -61 57 -70 64 -79 64 -5 0 -16 6 -24 14
-9 7 -49 25 -88 40 -40 15 -73 31 -73 36 0 4 -6 7 -12 7 -35 -3 -117 16 -111
26 4 7 0 8 -11 4 -20 -8 -94 10 -113 27 -35 33 -130 261 -146 351 -3 17 -9 39
-13 49 -6 15 -4 17 6 11 8 -5 25 -10 39 -11z m2271 -11 c0 -15 -2 -16 -10 -3
-7 11 -9 7 -5 -15 4 -20 -5 -59 -26 -115 -17 -47 -33 -97 -36 -112 -3 -16 -9
-28 -14 -28 -5 0 -9 -10 -9 -22 0 -12 -3 -18 -7 -15 -6 6 -37 -52 -33 -61 1
-2 -8 -11 -19 -21 -11 -10 -40 -18 -68 -20 -26 -1 -52 -6 -58 -11 -5 -4 -26
-11 -45 -14 -53 -9 -100 -24 -126 -41 -13 -8 -24 -13 -24 -9 0 3 -12 -1 -26
-11 -18 -11 -24 -13 -19 -4 4 8 -2 4 -14 -9 -12 -12 -37 -28 -55 -36 -19 -8
-61 -40 -93 -73 -94 -92 -166 -229 -164 -315 1 -44 -2 -49 -35 -72 -20 -13
-42 -22 -50 -19 -17 6 -11 102 19 278 7 37 55 120 89 151 29 28 46 38 122 76
10 5 26 11 35 13 9 2 48 11 86 19 99 22 134 33 162 51 14 9 32 14 41 10 9 -3
13 -3 10 1 -7 7 65 64 80 64 18 0 152 158 152 179 0 6 4 11 9 11 13 0 56 121
54 152 -1 20 4 28 20 31 46 9 57 7 57 -10z m-1833 -38 c-44 -12 -132 -62 -163
-92 -12 -12 -12 -18 0 -41 20 -37 70 -92 85 -92 7 0 9 -5 5 -12 -5 -7 -2 -9 8
-5 9 3 21 0 27 -6 6 -6 34 -21 63 -33 53 -23 54 -34 1 -13 -15 6 -37 15 -48
19 -63 25 -95 44 -137 84 -27 25 -48 50 -48 55 0 5 -7 11 -15 15 -8 3 -15 12
-15 21 0 8 -4 15 -10 15 -5 0 -10 8 -10 18 0 9 -7 26 -15 36 -29 39 -21 41
153 42 151 1 163 0 119 -11z m1296 8 c-7 -2 -21 -2 -30 0 -10 3 -4 5 12 5 17
0 24 -2 18 -5z m337 -15 c0 -20 -61 -120 -97 -158 -13 -14 -23 -28 -23 -32 0
-5 -5 -8 -11 -8 -6 0 -17 -6 -24 -12 -32 -29 -43 -36 -63 -42 -12 -4 -22 -12
-22 -18 0 -5 -6 -8 -12 -5 -7 2 -21 0 -30 -4 -24 -13 -31 4 -8 19 12 7 21 8
25 2 3 -5 36 20 72 55 37 36 69 65 73 65 3 0 7 11 8 24 2 30 -51 77 -108 96
-22 7 -37 17 -34 21 2 4 -9 7 -26 7 -17 -1 -33 1 -36 4 -3 3 67 5 155 4 145
-1 161 -3 161 -18z m-1435 2 c3 -6 -1 -7 -9 -4 -18 7 -21 14 -7 14 6 0 13 -4
16 -10z m-42 -25 c32 -8 70 -22 85 -32 37 -23 112 -95 112 -108 0 -13 -53 -49
-115 -76 -35 -16 -68 -22 -118 -21 -87 0 -152 31 -225 104 l-52 54 52 31 c51
31 140 61 183 62 12 1 47 -6 78 -14z m1204 -3 c61 -19 143 -66 143 -81 0 -5
-24 -31 -52 -57 -59 -53 -132 -90 -195 -98 -58 -7 -148 18 -211 60 l-53 35 31
40 c52 64 158 117 242 118 20 1 62 -7 95 -17z m-1093 -3 c14 -7 27 -18 30 -26
5 -12 -25 4 -63 34 -9 7 10 2 33 -8z m856 7 c0 -2 -7 -7 -16 -10 -8 -3 -12 -2
-9 4 6 10 25 14 25 6z m-92 -58 c-7 -7 -22 -20 -33 -28 -15 -10 -14 -7 4 13
14 15 29 27 33 27 5 0 3 -6 -4 -12z m-648 -60 c0 -4 -4 -8 -10 -8 -5 0 -10 7
-10 15 0 8 -4 15 -10 15 -5 0 -10 5 -10 12 0 6 9 3 20 -7 11 -10 20 -22 20
-27z m-130 -132 c0 -2 -7 -7 -16 -10 -8 -3 -12 -2 -9 4 6 10 25 14 25 6z m-40
-10 c0 -2 -7 -7 -16 -10 -8 -3 -12 -2 -9 4 6 10 25 14 25 6z m1013 -13 c-13
-2 -33 -2 -45 0 -13 2 -3 4 22 4 25 0 35 -2 23 -4z m-1086 -9 c-3 -3 -12 -4
-19 -1 -8 3 -5 6 6 6 11 1 17 -2 13 -5z"/>
<path d="M2918 4631 c-28 -25 -33 -36 -33 -76 0 -60 35 -95 95 -95 106 0 143
137 50 185 -43 22 -76 18 -112 -14z m119 -24 c22 -24 22 -80 -1 -102 -37 -37
-116 -19 -116 26 0 11 -4 17 -10 14 -5 -3 -10 -2 -10 3 0 17 12 21 36 10 19
-9 28 -8 44 7 22 20 26 51 8 58 -7 3 -3 4 10 4 13 -1 30 -10 39 -20z m-63 -4
c9 -22 -13 -34 -37 -22 -14 8 -16 13 -6 25 15 19 35 18 43 -3z"/>
<path d="M2205 4118 c-48 -27 -59 -79 -25 -115 27 -30 55 -36 87 -21 54 26 56
105 3 133 -34 18 -39 18 -65 3z m65 -37 c25 -47 -2 -89 -48 -74 -37 13 -44 64
-10 81 34 16 46 14 58 -7z"/>
<path d="M3686 4108 c-36 -33 -42 -68 -16 -101 27 -34 80 -37 110 -7 30 30 27
83 -6 109 -34 27 -57 26 -88 -1z m75 -27 c20 -16 21 -21 10 -47 -14 -34 -46
-42 -73 -17 -22 20 -23 47 -2 67 20 21 37 20 65 -3z"/>
<path d="M1993 3770 c-26 -11 -43 -40 -43 -74 0 -27 41 -66 70 -66 10 0 29 9
44 21 61 48 2 148 -71 119z m57 -52 c0 -19 2 -20 11 -8 8 12 10 12 7 -5 -4
-27 -54 -51 -74 -35 -14 13 -19 51 -7 63 3 4 19 7 35 7 22 0 28 -4 28 -22z"/>
<path d="M3895 3755 c-14 -13 -25 -36 -25 -50 0 -29 40 -75 65 -75 20 0 57 19
67 34 18 26 8 75 -18 95 -35 27 -59 26 -89 -4z m73 -20 c20 -6 23 -11 17 -33
-9 -38 -16 -43 -50 -34 -36 10 -45 45 -18 71 10 10 20 15 23 11 3 -4 16 -11
28 -15z"/>
<path d="M2362 3300 c-20 -19 -27 -42 -23 -80 3 -23 49 -60 75 -60 13 0 35 9
50 21 20 16 26 29 26 59 0 68 -79 105 -128 60z m100 -36 c13 -27 5 -49 -23
-67 -22 -14 -74 13 -75 38 -1 54 76 77 98 29z"/>
<path d="M3495 3295 c-16 -15 -25 -36 -25 -55 0 -36 38 -80 69 -80 57 0 99 51
85 104 -14 57 -86 74 -129 31z m103 -40 c12 -56 -66 -92 -89 -41 -16 34 -4 74
24 79 27 4 61 -15 65 -38z"/>
<path d="M2863 4116 c-176 -41 -327 -161 -412 -331 l-30 -59 60 -43 c98 -72
207 -122 325 -150 60 -14 115 -27 122 -29 30 -8 5 -64 -29 -64 -16 0 -15 -5 6
-42 23 -43 58 -137 71 -193 6 -28 7 -26 20 28 8 32 29 91 48 132 32 68 33 75
16 75 -11 0 -24 9 -30 21 -15 28 2 47 49 54 85 14 170 38 237 70 87 40 212
119 220 139 6 15 -27 80 -76 151 -38 55 -137 146 -193 177 -118 67 -280 92
-404 64z m169 -18 c35 1 77 -9 134 -32 86 -34 186 -95 177 -108 -2 -5 1 -8 7
-8 15 0 77 -68 97 -105 9 -16 19 -32 22 -35 3 -3 14 -20 24 -38 18 -32 18 -34
1 -53 -9 -10 -23 -19 -29 -19 -7 0 -15 -7 -19 -15 -3 -8 -15 -15 -26 -15 -12
0 -18 -4 -15 -10 3 -5 2 -10 -4 -10 -6 0 -32 -12 -58 -27 -26 -16 -59 -29 -73
-31 -14 -2 -34 -9 -45 -17 -33 -20 -85 -29 -85 -13 0 10 -2 10 -8 1 -4 -7 -27
-16 -51 -22 -24 -5 -54 -20 -66 -33 -18 -19 -20 -27 -11 -50 6 -16 14 -28 18
-28 4 0 8 -7 8 -16 0 -20 -40 -114 -49 -114 -9 1 -41 73 -41 93 0 9 -5 17 -12
17 -6 0 -1 8 10 19 50 42 17 107 -56 113 -17 1 -32 6 -32 10 0 4 -13 5 -30 2
-20 -4 -30 -2 -30 5 0 7 -4 10 -9 6 -9 -5 -26 0 -108 36 -24 11 -45 19 -48 19
-19 0 -165 108 -165 122 0 25 92 156 147 210 26 26 69 58 95 71 26 13 44 27
40 31 -4 4 -2 7 3 5 13 -3 65 10 86 21 9 5 28 7 42 6 15 -2 24 1 21 5 -3 5 9
7 26 5 17 -2 33 1 36 5 3 5 10 7 15 3 6 -3 33 -6 61 -6z"/>
<path d="M2920 4072 c0 -7 -9 -12 -20 -12 -24 0 -113 -23 -120 -30 -3 -4 -20
-12 -38 -20 -69 -27 -202 -157 -202 -197 0 -34 116 -149 178 -177 23 -10 39
-23 36 -28 -3 -5 -2 -8 3 -6 14 3 123 -25 119 -31 -5 -7 154 -5 199 2 56 9
127 35 166 61 21 14 40 26 43 26 7 0 77 62 113 100 32 34 44 70 22 70 -5 0 -8
4 -5 9 3 4 -22 37 -56 71 -33 35 -58 57 -53 51 4 -7 -16 4 -45 24 -29 21 -58
38 -64 39 -6 1 -17 6 -25 10 -34 21 -144 42 -186 36 -27 -4 -48 -3 -55 4 -7 7
-10 6 -10 -2z m222 -57 c81 -28 180 -96 233 -161 l39 -47 -61 -56 c-162 -149
-338 -195 -519 -135 -43 14 -95 35 -114 47 -40 24 -160 136 -160 149 0 18 97
112 153 149 56 37 151 73 212 83 53 7 148 -5 217 -29z"/>
<path d="M2930 3953 c-23 -9 -60 -45 -76 -75 -49 -94 35 -217 139 -204 143 17
182 206 57 271 -28 15 -90 19 -120 8z m93 -22 c4 0 23 -17 42 -36 37 -36 44
-70 25 -120 -26 -68 -107 -96 -168 -58 -42 27 -51 44 -52 97 0 37 3 47 14 43
8 -3 16 2 19 14 7 27 57 27 57 -1 0 -15 -7 -20 -26 -20 -14 0 -23 -4 -19 -10
3 -5 17 -10 30 -10 31 0 43 44 20 71 -29 31 -11 40 58 30z"/>
<path d="M1781 4104 c0 -11 3 -14 6 -6 3 7 2 16 -1 19 -3 4 -6 -2 -5 -13z"/>
<path d="M2380 3721 c0 -6 4 -13 10 -16 6 -3 7 1 4 9 -7 18 -14 21 -14 7z"/>
<path d="M2030 2914 c0 -11 90 -115 150 -172 92 -89 365 -282 399 -282 15 0
-17 119 -46 172 -36 67 -130 151 -214 193 -80 41 -289 105 -289 89z m155 -65
c5 -5 19 -9 30 -9 43 0 224 -108 208 -124 -4 -3 1 -6 9 -6 22 0 99 -108 103
-145 1 -5 5 -18 9 -28 13 -27 0 -32 -31 -11 -26 18 -43 27 -96 57 -20 11 -95
65 -107 77 -3 3 -30 26 -61 52 -31 26 -80 74 -108 107 l-51 59 42 -10 c24 -6
47 -15 53 -19z"/>
<path d="M3855 2901 c-200 -50 -328 -127 -404 -243 -37 -57 -81 -181 -68 -194
8 -8 159 84 260 158 115 86 325 300 290 297 -4 0 -39 -8 -78 -18z m6 -41 c-13
-11 -20 -20 -17 -20 4 0 -19 -25 -51 -56 -94 -90 -132 -124 -138 -124 -3 0
-16 -9 -28 -21 -12 -11 -38 -30 -57 -40 -19 -11 -53 -31 -75 -44 -21 -13 -43
-21 -49 -18 -5 3 -6 2 -3 -3 3 -6 -3 -15 -14 -22 -27 -17 -25 -2 11 73 32 67
113 165 136 165 8 0 14 4 14 10 0 13 54 40 82 40 18 0 20 2 9 9 -12 8 -8 11
15 17 16 4 34 9 39 13 6 3 21 7 34 9 14 2 33 8 43 13 10 5 23 7 28 4 5 -3 11
-1 15 5 3 5 12 10 18 10 7 -1 1 -10 -12 -20z"/>
<path d="M2838 2715 c-3 -3 1 -31 8 -63 8 -31 16 -122 19 -202 l4 -145 56 -24
55 -24 60 24 60 24 0 130 c1 71 7 162 14 200 8 39 11 73 7 78 -4 4 -32 -6 -62
-23 -68 -37 -86 -37 -152 0 -57 32 -61 33 -69 25z m132 -80 c14 -2 49 7 78 20
29 13 50 20 46 14 -9 -14 -12 -46 -20 -202 -5 -99 -11 -143 -21 -153 -8 -8
-18 -12 -23 -9 -5 3 -11 1 -15 -5 -10 -16 -58 -12 -85 7 -14 10 -27 17 -30 15
-3 -1 -5 8 -6 20 -12 254 -16 310 -21 323 -4 13 3 11 33 -6 21 -12 50 -23 64
-24z"/>
<path d="M1617 2066 c-103 -38 -173 -133 -184 -251 -15 -158 87 -292 241 -317
89 -16 162 2 218 52 24 21 40 41 37 44 -4 4 -14 -1 -24 -10 -34 -35 -99 -60
-159 -63 -69 -3 -155 16 -163 35 -3 8 -8 12 -13 9 -10 -6 -54 43 -81 90 -47
85 -32 257 26 304 14 10 22 21 19 24 -8 7 45 41 87 55 96 33 206 18 276 -38
l28 -21 17 21 c10 12 18 28 18 34 0 6 14 13 30 14 l30 2 2 -227 c0 -126 1
-243 2 -261 1 -32 0 -33 -34 -30 -19 2 -36 9 -36 16 -1 6 -2 19 -3 28 -2 33
-21 1 -21 -37 l0 -39 60 0 60 0 0 285 0 285 -60 0 -60 0 0 -37 0 -36 -22 19
c-54 48 -81 58 -168 61 -56 2 -98 -2 -123 -11z"/>
<path d="M2422 2060 c-24 -11 -50 -32 -60 -50 -24 -42 -30 -38 -24 15 l5 45
-62 0 -61 0 0 -285 0 -285 59 0 59 0 4 178 c3 156 5 181 23 212 29 49 78 74
141 74 l52 -1 7 45 c4 24 9 51 12 58 8 22 -103 18 -155 -6z m-112 -41 c0 -50
47 -60 78 -17 21 29 67 48 115 48 43 0 43 -1 39 -30 -4 -28 -8 -30 -46 -31
-82 -1 -115 -21 -151 -91 -23 -44 -25 -58 -25 -185 0 -175 -3 -184 -45 -181
l-33 2 -1 256 -1 257 35 -1 c31 -1 35 -4 35 -27z"/>
<path d="M2782 2049 c-105 -52 -156 -136 -156 -259 0 -124 50 -208 157 -261
52 -27 70 -30 138 -30 88 1 147 22 186 69 l23 27 0 -35 c0 -87 -41 -158 -107
-186 -73 -31 -218 -4 -262 49 -19 24 -24 22 -61 -29 l-33 -47 24 -18 c71 -56
183 -85 287 -75 116 10 202 66 243 158 23 51 24 62 27 356 l3 302 -60 0 -61 0
0 -35 c0 -35 -13 -47 -23 -21 -3 7 -29 25 -58 40 -43 21 -67 26 -129 26 -66 0
-86 -4 -138 -31z m236 -7 c23 -10 51 -25 62 -34 34 -30 70 -27 70 6 0 17 7 26
26 30 15 4 30 3 35 -1 10 -10 12 -112 7 -378 -3 -191 -5 -214 -25 -255 -64
-135 -269 -175 -440 -87 -47 24 -56 50 -22 68 17 9 24 7 40 -10 39 -41 207
-61 266 -31 63 33 121 116 107 154 -3 8 -1 17 4 20 14 8 -8 76 -24 76 -7 0
-20 -7 -28 -16 -9 -8 -21 -12 -27 -8 -8 4 -9 3 -5 -5 5 -7 -8 -18 -36 -30 -34
-15 -59 -18 -118 -15 -122 7 -192 52 -237 153 -22 49 -25 66 -20 133 4 69 9
83 43 132 21 30 52 63 69 73 70 42 182 53 253 25z"/>
<path d="M2853 1987 c-13 -7 -23 -15 -23 -19 0 -5 -6 -8 -12 -8 -7 0 -22 -10
-34 -23 -24 -26 -48 -67 -38 -67 3 0 2 -6 -4 -13 -20 -24 -17 -119 5 -162 20
-37 83 -104 83 -88 0 5 4 2 9 -6 5 -8 18 -16 28 -18 89 -16 103 -15 147 6 25
11 48 21 51 21 12 0 65 62 65 75 0 8 5 15 10 15 6 0 10 33 10 79 0 68 -3 83
-26 117 -30 44 -58 70 -94 89 -32 15 -148 17 -177 2z m140 -18 c149 -41 183
-252 54 -337 -34 -23 -52 -27 -107 -27 -58 0 -71 4 -104 29 -127 96 -104 280
40 331 48 17 68 18 117 4z"/>
<path d="M3590 2071 c-86 -28 -151 -83 -191 -161 -18 -35 -23 -61 -23 -120 0
-122 49 -203 156 -260 58 -32 70 -34 153 -34 72 0 100 5 140 23 139 62 208
214 164 361 -18 59 -78 130 -139 164 -48 27 -65 31 -145 33 -49 1 -101 -1
-115 -6z m222 -36 c20 -10 35 -22 32 -27 -3 -4 2 -5 10 -2 9 3 26 -7 43 -27
15 -17 34 -38 41 -45 13 -14 17 -24 32 -99 10 -50 3 -121 -16 -160 -33 -66
-42 -77 -47 -63 -3 7 -6 3 -6 -9 -1 -13 -7 -23 -15 -23 -8 0 -16 -5 -18 -11
-2 -6 -28 -19 -58 -29 -64 -22 -226 -22 -240 0 -4 7 -12 10 -18 6 -17 -10
-109 84 -131 134 -40 88 -18 232 42 281 12 10 31 27 42 38 21 21 63 40 105 48
13 2 26 6 28 8 11 10 142 -5 174 -20z"/>
<path d="M3597 1983 c-12 -6 -32 -17 -44 -24 -12 -6 -35 -37 -51 -68 -24 -46
-28 -65 -25 -111 4 -68 34 -128 82 -162 114 -82 262 -43 326 85 17 34 21 142
5 152 -5 3 -10 15 -10 26 0 10 -4 19 -10 19 -5 0 -10 6 -10 13 0 20 -69 69
-113 79 -52 11 -122 8 -150 -9z m195 -38 c115 -76 105 -265 -18 -325 -73 -36
-176 -19 -226 37 -48 53 -60 141 -29 208 49 107 176 144 273 80z"/>
<path d="M4204 2056 c-65 -30 -94 -75 -94 -142 0 -95 41 -130 205 -174 103
-28 125 -42 125 -80 0 -83 -178 -88 -267 -8 l-22 20 -33 -38 c-18 -20 -33 -42
-33 -48 0 -19 83 -66 146 -82 115 -30 241 -3 298 62 56 63 50 157 -11 209 -37
31 -55 39 -156 66 -102 27 -132 44 -132 74 0 70 132 89 219 32 l39 -26 35 43
36 43 -32 19 c-68 41 -111 53 -192 53 -64 1 -90 -4 -131 -23z m214 -11 c18 -3
49 -16 68 -27 35 -20 35 -21 15 -39 -21 -20 -41 -25 -41 -11 0 5 -24 16 -53
25 -105 33 -197 -1 -197 -74 0 -34 27 -65 67 -75 12 -4 20 -10 17 -16 -3 -5 0
-8 7 -7 14 2 37 -3 118 -24 25 -7 61 -28 84 -50 38 -35 39 -39 35 -86 -10
-103 -90 -148 -247 -139 -89 5 -137 21 -125 40 4 6 3 8 -3 5 -6 -4 -18 -1 -28
7 -15 11 -16 15 -4 34 14 22 39 30 39 13 0 -10 85 -43 125 -48 17 -2 53 -1 81
2 42 5 55 12 73 36 43 58 4 122 -84 143 -62 14 -141 40 -169 56 -80 44 -80
162 0 214 49 33 130 40 222 21z"/>
<path d="M1735 2004 c-84 -18 -107 -29 -145 -70 -22 -24 -40 -52 -40 -62 0
-10 -3 -21 -6 -25 -15 -15 -10 -104 8 -139 10 -21 16 -38 12 -38 -3 0 8 -12
25 -26 17 -14 29 -29 26 -34 -3 -4 3 -7 13 -6 9 0 16 -4 15 -9 -2 -12 11 -14
109 -17 51 -1 72 2 86 15 10 9 23 17 28 17 15 0 49 42 69 83 22 47 26 133 8
176 -26 61 -70 98 -153 128 -19 7 -35 12 -35 12 0 -1 -9 -3 -20 -5z m99 -49
c82 -39 119 -155 78 -247 -28 -65 -80 -101 -151 -106 -125 -9 -211 81 -199
208 13 133 147 204 272 145z"/>
</g>
</svg>
