<?xml version="1.0" standalone="no"?>
<!DOCTYPE svg PUBLIC "-//W3C//DTD SVG 20010904//EN"
 "http://www.w3.org/TR/2001/REC-SVG-20010904/DTD/svg10.dtd">
<svg version="1.0" xmlns="http://www.w3.org/2000/svg"
 width="600.000000pt" height="593.000000pt" viewBox="0 0 600.000000 593.000000"
 preserveAspectRatio="xMidYMid meet">
<g transform="translate(0.000000,593.000000) scale(0.100000,-0.100000)"
fill="#000000" stroke="none">
<path d="M5430 5855 c0 -3 2 -5 5 -5 3 0 5 2 5 5 0 3 -2 5 -5 5 -3 0 -5 -2 -5
-5z"/>
<path d="M2280 5845 c0 -3 2 -5 5 -5 3 0 5 2 5 5 0 3 -2 5 -5 5 -3 0 -5 -2 -5
-5z"/>
<path d="M3580 5800 c0 -5 5 -10 10 -10 6 0 10 5 10 10 0 6 -4 10 -10 10 -5 0
-10 -4 -10 -10z"/>
<path d="M3520 5769 c0 -5 5 -7 10 -4 6 3 10 8 10 11 0 2 -4 4 -10 4 -5 0 -10
-5 -10 -11z"/>
<path d="M1903 5763 c4 -3 10 -3 14 0 3 4 0 7 -7 7 -7 0 -10 -3 -7 -7z"/>
<path d="M3520 5695 c0 -3 2 -5 5 -5 3 0 5 2 5 5 0 3 -2 5 -5 5 -3 0 -5 -2 -5
-5z"/>
<path d="M4790 5695 c0 -3 2 -5 5 -5 3 0 5 2 5 5 0 3 -2 5 -5 5 -3 0 -5 -2 -5
-5z"/>
<path d="M960 5685 c0 -3 2 -5 5 -5 3 0 5 2 5 5 0 3 -2 5 -5 5 -3 0 -5 -2 -5
-5z"/>
<path d="M1510 5600 c0 -7 3 -10 7 -7 3 4 3 10 0 14 -4 3 -7 0 -7 -7z"/>
<path d="M2795 5383 c-440 -62 -850 -358 -971 -700 -42 -119 -43 -116 102
-231 169 -135 270 -265 246 -318 -32 -70 -92 -55 -157 38 -31 46 -84 100 -140
148 -204 170 -253 235 -275 363 -24 138 34 280 181 442 33 36 59 70 59 75 0
20 -41 52 -58 45 -122 -46 -460 -292 -483 -350 -23 -62 -23 -205 0 -266 43
-114 104 -173 304 -293 193 -115 385 -305 370 -365 -17 -75 -87 -85 -126 -18
-64 108 -168 197 -371 317 -216 128 -291 237 -291 422 0 60 -3 108 -6 108 -10
0 -150 -167 -222 -265 -123 -169 -234 -377 -301 -563 -56 -157 -25 -194 188
-232 280 -49 462 -165 605 -385 77 -117 161 -360 161 -466 0 -90 -118 -104
-134 -16 -82 456 -261 660 -649 742 -142 29 -163 38 -204 82 -42 44 -41 46
-68 -89 -53 -260 -70 -626 -33 -694 21 -38 41 -55 70 -59 13 -1 57 -14 98 -28
252 -84 474 -104 857 -76 424 31 710 -80 940 -365 98 -121 108 -154 60 -195
-39 -32 -78 -10 -139 76 -121 170 -273 274 -483 331 -70 19 -239 21 -582 8
-330 -13 -536 21 -737 121 -37 19 -71 32 -74 29 -17 -18 70 -372 133 -542 44
-118 149 -335 204 -420 l39 -61 68 -7 c272 -28 672 -170 866 -308 270 -193
418 -442 451 -756 l11 -113 124 -66 c68 -36 131 -67 140 -70 26 -6 14 365 -17
530 -84 451 -240 605 -716 712 -520 116 -838 372 -1014 817 -26 64 -14 102 35
114 47 12 62 -3 124 -132 120 -253 273 -415 491 -519 256 -122 601 -94 838 68
51 35 92 39 121 12 29 -26 26 -71 -7 -102 -36 -33 -234 -129 -298 -144 -76
-18 -73 -24 17 -44 181 -39 291 -91 547 -259 96 -63 180 -112 187 -109 17 6
19 232 4 398 -30 315 -85 521 -211 782 l-68 142 -43 11 c-279 75 -500 186
-776 390 -148 109 -147 108 -46 311 216 435 597 722 1042 787 l112 16 0 72 0
71 -77 6 c-190 15 -501 150 -581 252 -31 40 -11 92 43 109 21 6 29 1 134 -72
261 -183 675 -212 985 -68 40 18 110 59 156 90 88 60 108 63 143 24 33 -39 22
-73 -39 -121 -150 -118 -414 -217 -580 -217 l-44 0 0 -74 0 -74 68 -7 c441
-45 811 -297 1056 -720 71 -124 118 -247 107 -279 -22 -57 -303 -253 -506
-352 -129 -63 -349 -144 -393 -144 -57 0 -220 -382 -271 -635 -54 -267 -70
-701 -26 -699 11 0 85 46 165 101 239 166 371 229 554 267 100 20 100 21 29
41 -189 55 -355 159 -337 211 21 59 78 71 135 28 240 -180 644 -193 919 -30
183 108 303 243 411 463 69 140 80 153 123 153 67 0 70 -58 11 -191 -176 -397
-482 -625 -996 -744 -473 -110 -646 -298 -713 -775 -17 -125 -31 -466 -19
-472 4 -2 70 29 146 69 l137 74 0 53 c0 230 111 484 294 674 204 212 622 398
991 442 55 7 103 14 106 16 39 23 210 382 270 564 46 141 118 445 107 455 -3
3 -43 -13 -90 -35 -200 -93 -404 -126 -718 -114 -479 18 -572 11 -725 -53
-128 -54 -275 -177 -360 -303 -43 -65 -50 -70 -92 -70 -64 0 -80 59 -34 128
146 221 378 379 636 432 74 15 270 17 560 6 296 -12 445 7 672 83 49 16 100
32 114 35 18 4 32 18 44 42 40 85 0 663 -57 813 l-9 24 -24 -35 c-29 -44 -74
-65 -173 -84 -42 -9 -101 -20 -130 -25 -269 -52 -507 -339 -551 -666 -13 -89
-33 -116 -84 -111 -77 8 -79 96 -7 305 122 354 350 552 704 613 230 39 255 72
191 246 -86 229 -241 491 -408 689 -128 152 -144 163 -125 85 41 -178 -61
-365 -262 -479 -195 -111 -302 -200 -372 -307 -40 -60 -45 -64 -80 -64 -31 0
-40 5 -53 30 -21 41 -20 45 29 114 85 119 169 187 418 340 171 104 223 189
223 361 0 61 -3 122 -7 137 -13 46 -231 213 -405 312 -94 53 -96 53 -123 26
-29 -29 -27 -32 45 -111 253 -276 245 -521 -25 -739 -117 -94 -175 -154 -229
-231 -27 -39 -45 -55 -64 -57 -33 -4 -77 37 -77 72 0 49 113 177 260 294 137
110 139 113 96 224 -129 337 -483 607 -901 688 -101 19 -317 26 -410 13z m369
-163 c140 -36 286 -119 411 -233 l60 -55 -45 -47 c-47 -49 -191 -150 -269
-190 -242 -122 -533 -108 -773 36 -78 47 -195 137 -233 180 l-20 21 50 45
c260 233 538 316 819 243z m-1992 -950 c19 -11 95 -43 169 -71 233 -88 326
-154 430 -303 54 -76 54 -67 -9 -139 -18 -22 -54 -70 -78 -108 -25 -38 -49
-69 -53 -69 -96 0 -320 97 -466 201 -55 39 -127 85 -160 101 -33 17 -62 32
-63 33 -4 4 187 375 193 375 2 0 19 -9 37 -20z m3722 -171 c47 -91 86 -170 86
-175 0 -5 -28 -24 -63 -41 -34 -18 -98 -60 -142 -94 -138 -104 -307 -182 -441
-204 -41 -6 -41 -6 -74 47 -19 29 -58 81 -87 116 -64 76 -63 68 -9 150 96 148
203 223 445 314 57 21 120 47 140 58 46 24 41 30 145 -171z m-3952 -627 c218
-62 364 -255 394 -521 l6 -59 -58 -7 c-170 -19 -384 54 -474 163 -84 103 -158
356 -126 438 9 22 158 14 258 -14z m4298 -55 c0 -307 -184 -502 -503 -532
-128 -12 -147 -5 -147 58 0 29 9 85 20 126 70 273 270 426 558 430 l72 1 0
-83z m-3321 -943 c103 -27 209 -92 304 -186 48 -47 87 -91 87 -97 0 -20 -103
-92 -194 -136 -278 -134 -522 -83 -758 157 -91 92 -92 97 -35 136 191 131 403
176 596 126z m2364 12 c123 -24 331 -121 361 -169 31 -49 -223 -253 -382 -308
-183 -63 -453 2 -611 146 l-34 32 21 30 c42 59 171 170 239 205 137 72 261 91
406 64z"/>
<path d="M2895 5124 c-216 -81 -161 -400 69 -399 138 1 233 116 204 248 -25
116 -163 193 -273 151z m37 -81 c46 -42 -4 -104 -57 -69 -32 21 -32 39 1 65
32 25 33 25 56 4z"/>
<path d="M1370 4028 c-146 -74 -90 -288 76 -288 157 0 203 220 60 289 -54 27
-81 26 -136 -1z"/>
<path d="M4416 4027 c-127 -79 -90 -273 55 -284 153 -13 233 189 110 277 -48
33 -118 36 -165 7z"/>
<path d="M930 3311 c-45 -24 -72 -70 -72 -125 -3 -154 199 -202 270 -65 66
128 -70 259 -198 190z"/>
<path d="M4835 3299 c-124 -110 -14 -303 140 -244 153 58 107 275 -57 275 -39
0 -54 -6 -83 -31z"/>
<path d="M1720 2378 c-57 -39 -75 -72 -75 -138 0 -202 295 -219 321 -19 16
128 -141 228 -246 157z"/>
<path d="M4039 2377 c-136 -91 -81 -297 79 -297 163 0 227 206 92 297 -46 32
-124 32 -171 0z"/>
<path d="M5750 5365 c0 -3 2 -5 5 -5 3 0 5 2 5 5 0 3 -2 5 -5 5 -3 0 -5 -2 -5
-5z"/>
<path d="M5680 5295 c0 -3 2 -5 5 -5 3 0 5 2 5 5 0 3 -2 5 -5 5 -3 0 -5 -2 -5
-5z"/>
<path d="M5200 5125 c0 -3 2 -5 5 -5 3 0 5 2 5 5 0 3 -2 5 -5 5 -3 0 -5 -2 -5
-5z"/>
<path d="M458 4963 c7 -3 16 -2 19 1 4 3 -2 6 -13 5 -11 0 -14 -3 -6 -6z"/>
<path d="M2810 4044 c-350 -66 -606 -220 -802 -484 -77 -104 -178 -284 -178
-319 0 -18 140 -125 262 -200 202 -122 436 -208 648 -236 116 -16 140 -31 140
-86 0 -42 -32 -69 -81 -69 l-41 0 21 -35 c47 -80 122 -267 149 -373 16 -62 31
-115 34 -117 2 -3 12 30 22 73 22 94 74 236 132 360 l43 92 -35 0 c-64 0 -97
70 -56 119 13 17 38 25 117 36 193 29 381 91 557 183 100 52 337 209 351 233
27 43 -127 303 -265 450 -164 174 -367 294 -591 350 -80 20 -362 35 -427 23z
m336 -179 c162 -30 349 -123 489 -242 78 -66 195 -198 195 -220 0 -7 -42 -55
-93 -106 -461 -461 -1120 -453 -1566 18 l-81 87 22 31 c233 327 653 503 1034
432z"/>
<path d="M2880 3701 c-212 -65 -279 -335 -122 -490 263 -259 656 92 437 390
-63 88 -207 133 -315 100z m21 -131 c32 -18 26 -77 -9 -85 -75 -16 -116 51
-49 80 39 17 35 17 58 5z"/>
<path d="M5910 1775 c0 -3 2 -5 5 -5 3 0 5 2 5 5 0 3 -2 5 -5 5 -3 0 -5 -2 -5
-5z"/>
<path d="M1010 1576 c0 -13 130 -165 226 -265 175 -183 329 -310 564 -464 141
-92 330 -207 342 -207 25 0 -14 179 -62 285 -113 249 -349 445 -670 555 -157
53 -400 112 -400 96z"/>
<path d="M4719 1540 c-460 -122 -728 -311 -870 -614 -53 -113 -93 -286 -66
-286 46 0 535 329 706 476 145 124 431 429 431 460 0 11 -68 -1 -201 -36z"/>
<path d="M2677 1163 c-14 -16 -13 -28 9 -133 30 -147 46 -345 42 -535 -1 -82
0 -155 4 -161 4 -6 57 -32 118 -58 l111 -48 62 25 c34 14 87 37 118 51 l57 26
5 268 c5 262 14 348 51 491 13 50 12 55 -6 73 -10 10 -22 17 -26 15 -4 -2 -51
-30 -104 -61 -160 -93 -148 -93 -314 5 -114 67 -106 65 -127 42z"/>
</g>
</svg>
